<svg id="Layer_1" data-name="Layer 1" xmlns="http://www.w3.org/2000/svg" viewBox="0 0 500.46 586.2"><path d="M339.14,262.9v-.44a24.37,24.37,0,0,0-6.18,4A44.24,44.24,0,0,1,339.14,262.9Z" transform="translate(-249.34 -206.55)"/><path d="M474.15,525.87a.43.43,0,0,0-.44-.44c-35.3-34.85-62.65-74.57-78.54-113.39a37.42,37.42,0,0,0-7.5-3.09A248.28,248.28,0,0,0,363.84,401a152.87,152.87,0,0,0-28.23-5.3,135.1,135.1,0,0,0,2.2,14.12,90.83,90.83,0,0,0,3.09,13.68c12.8,48.09,44.12,98.83,87.81,143a9.6,9.6,0,0,1,2.2,1.76l34.86-34.42Z" transform="translate(-249.34 -206.55)"/><path d="M547.84,654.27c-.88-2.21-1.77-4.85-3.09-7.5-39.27-15.88-78.54-43.24-113.84-78.54l-.88.89-.44.43-41,41.48h-.44c-44.12-43.68-75.45-94-88.24-142.07-4.86-18.1-9.71-46.77-1.77-71.48-8.38,2.2-16.32,5.29-23.38,10.59a75.35,75.35,0,0,0-6.62,5.73c-26,26-19.42,71-12.8,95.31,12.8,48.09,44.12,98.83,87.81,142.95a9.88,9.88,0,0,1,2.2,1.77l41.48-41.48h.44v-.44l.88-.44c.88.44,1.33,1.33,2.21,1.77,16.32,16.32,33.53,31.32,51.62,43.68A160.23,160.23,0,0,0,460,668.83c11.92,7.5,24.27,13.68,36.18,19.41a216.16,216.16,0,0,0,36.63,13.24c2.64.44,5.73,1.33,8.82,1.77a13.08,13.08,0,0,0,4.41.88c4.85.88,9.71,1.76,15,2.21a265.25,265.25,0,0,0-5.3-27.8C553.57,670.6,550.92,662.21,547.84,654.27Z" transform="translate(-249.34 -206.55)"/><path d="M741.54,532.05C726.09,473.37,689,413.36,637.85,361.74v-.44l41.47-41.92.88-.89C629,267.31,568.58,230.25,509.89,214.81c-53.83-14.56-101-9.71-135.9,13.23a110.58,110.58,0,0,0-19.41,15.45,125.45,125.45,0,0,0-15.44,19c4-1.77,8.38-4,12.35-5.29a39.26,39.26,0,0,1,10.15-3.53c.44-.45,1.32-.45,2.2-.89a3.34,3.34,0,0,0,1.77-.44,119.22,119.22,0,0,1,17.21-3.53c1.32,0,2.64-.44,4-.44A139.11,139.11,0,0,1,406.2,247c8.83,0,18.09.88,27.36,1.76a2.65,2.65,0,0,0,1.76.44c4.86.88,9.71,1.77,15,2.65,4.85.88,9.7,2.21,15,3.53,3.53.88,7.06,1.77,11,3.09,3.53,1.32,7.5,2.2,11,3.53a358.82,358.82,0,0,1,65.74,31.77,457.39,457.39,0,0,1,82.51,65.74,3.44,3.44,0,0,1,1.77,1.77l-.44.88v.44h-.45l-41.47,41.47v.44h.44a3.42,3.42,0,0,0,1.76,1.77c51.63,51.62,88.25,112.07,104.14,170.76,2.64,10.14,4.85,19.85,5.73,29.56a1.93,1.93,0,0,1,.44,1.32h-.44a105.73,105.73,0,0,1,1.77,11.47c.44,4.86.44,10.15.44,15.45A157,157,0,0,1,708,655.59v2.21a113.4,113.4,0,0,1-4,18.53,1.64,1.64,0,0,1-.44,1.33,62.73,62.73,0,0,1-4.41,12.79,61.56,61.56,0,0,1-5.3,12.36,126.71,126.71,0,0,0,19-15.45A110.53,110.53,0,0,0,728.3,668C751.24,633.09,756.1,585.88,741.54,532.05Z" transform="translate(-249.34 -206.55)"/><path d="M424.29,300.41c-1.32-.45-2.2-.45-3.53-.89-9.7-2.2-19-4-28.23-5.29a147.35,147.35,0,0,0-34-1.32,147.53,147.53,0,0,0-34.86,5.29,110.44,110.44,0,0,0-35.3,15.44A95.84,95.84,0,0,0,269,329.53a107.37,107.37,0,0,0-15.44,19,125.13,125.13,0,0,1,25.15-10.15c12.35-3.53,25.59-4.85,39.27-5.29,9.7-.45,19.85.44,30,1.76a98,98,0,0,1,15,2.65A77.23,77.23,0,0,1,379.29,341h.44a317.71,317.71,0,0,1,54.71,20.3c40.15,19.41,80.3,48.09,115.6,83.83a5.29,5.29,0,0,1,2.21,2.21l41.48-41.48.44-.44.88-.89h-.44C543,352.91,483,316.29,424.29,300.41Z" transform="translate(-249.34 -206.55)"/><polygon points="258.78 284.91 259.23 284.47 258.78 284.47 258.78 284.91"/><path d="M550.92,448.22l-34.41,34.41-7.06,7.5c.88.45,1.32,1.33,2.21,1.77,35.3,35.3,64,75,82.95,115.6,9.26,18.09,15.88,36.62,21.18,54.71v.45c1.32,5.29,2.64,11,3.52,16.32.89,4.85,1.77,9.26,2.65,14.12V694c1.33,10.59,2.21,20.74,1.77,30A159,159,0,0,1,618,763.25v.45a123.1,123.1,0,0,1-9.71,25.15c6.62-4.86,13.24-9.71,19-15.45A128.86,128.86,0,0,0,642.7,754c2.65-1.32,3.09-2.21.44-.88a119.63,119.63,0,0,0,15-34.42l.44-.44a147.45,147.45,0,0,0,5.3-34.86,181.4,181.4,0,0,0-1.76-34,170.82,170.82,0,0,0-5.3-27.8,10.41,10.41,0,0,0-.88-3.53C640.5,559.41,603.43,499,552.25,447.34l-.88.88Z" transform="translate(-249.34 -206.55)"/><path d="M487.83,742.08C439.74,729.28,389,698,345.31,654.27l-.88.88H344l-41.48,41.48c.89.88,1.33,1.76,2.21,2.21,43.68,44.12,94.42,75,142.52,87.8,24.71,6.62,69.27,13.68,95.74-12.8a37.74,37.74,0,0,0,5.74-6.17v-.44a75.06,75.06,0,0,0,10.59-23.39C534.6,752.22,505.92,746.93,487.83,742.08Z" transform="translate(-249.34 -206.55)"/></svg>